<?xml version="1.0" encoding="UTF-8" standalone="no"?>
<!DOCTYPE svg PUBLIC "-//W3C//DTD SVG 1.1//EN" "http://www.w3.org/Graphics/SVG/1.1/DTD/svg11.dtd">
<!-- Generated by Microsoft Visio, SVG Export search.svg Page-1 -->
<svg xmlns="http://www.w3.org/2000/svg" xmlns:xlink="http://www.w3.org/1999/xlink" xmlns:ev="http://www.w3.org/2001/xml-events"
		width="8.55479in" height="8.55645in" viewBox="0 0 615.945 616.064" xml:space="preserve" color-interpolation-filters="sRGB"
		class="st2">
	<style type="text/css">
	<![CDATA[
		.st1 {fill:#ffffff;stroke:none;stroke-linecap:butt;stroke-width:1.19531}
		.st2 {fill:none;fill-rule:evenodd;font-size:12px;overflow:visible;stroke-linecap:square;stroke-miterlimit:3}
	]]>
	</style>

	<g>
		<title>Page-1</title>
		<g id="shape1-1" transform="translate(1.19531,0)">
			<title>path2</title>
			<path d="M603.63 530.36 L484.46 411.19 C479.08 405.81 471.79 402.82 464.14 402.82 L444.66 402.82 C477.65 360.63 497.25
						 307.55 497.25 249.82 C497.25 112.48 385.97 1.2 248.63 1.2 C111.28 1.2 0 112.48 0 249.82 C0 387.16 111.28
						 498.45 248.63 498.45 C306.36 498.45 359.43 478.84 401.62 445.85 L401.62 465.34 C401.62 472.99 404.61 480.28
						 409.99 485.66 L529.16 604.83 C540.4 616.06 558.57 616.06 569.69 604.83 L603.51 571 C614.75 559.76 614.75
						 541.6 603.63 530.36 ZM248.63 402.82 C164.12 402.82 95.63 334.45 95.63 249.82 C95.63 165.31 164 96.82 248.63
						 96.82 C333.13 96.82 401.62 165.19 401.62 249.82 C401.62 334.33 333.25 402.82 248.63 402.82 Z" class="st1"/>
		</g>
	</g>
</svg>
